<?xml version="1.0" encoding="UTF-8" standalone="no"?>
<!-- Created with Inkscape (http://www.inkscape.org/) -->

<svg
   xmlns:dc="http://purl.org/dc/elements/1.1/"
   xmlns:cc="http://creativecommons.org/ns#"
   xmlns:rdf="http://www.w3.org/1999/02/22-rdf-syntax-ns#"
   xmlns:svg="http://www.w3.org/2000/svg"
   xmlns="http://www.w3.org/2000/svg"
   xmlns:xlink="http://www.w3.org/1999/xlink"
   xmlns:sodipodi="http://sodipodi.sourceforge.net/DTD/sodipodi-0.dtd"
   xmlns:inkscape="http://www.inkscape.org/namespaces/inkscape"
   width="43.683678mm"
   height="8.5182896mm"
   viewBox="0 0 43.683678 8.5182896"
   version="1.1"
   id="svg8"
   inkscape:version="0.92.5 (2060ec1f9f, 2020-04-08)"
   sodipodi:docname="logo.svg">
  <defs
     id="defs2">
    <linearGradient
       id="linearGradient860"
       inkscape:collect="always">
      <stop
         id="stop856"
         offset="0"
         style="stop-color:#ececec;stop-opacity:1" />
      <stop
         id="stop858"
         offset="1"
         style="stop-color:#999999;stop-opacity:1" />
    </linearGradient>
    <linearGradient
       inkscape:collect="always"
       id="linearGradient823">
      <stop
         style="stop-color:#ff5555;stop-opacity:1"
         offset="0"
         id="stop819" />
      <stop
         style="stop-color:#ff8080;stop-opacity:1"
         offset="1"
         id="stop821" />
    </linearGradient>
    <linearGradient
       inkscape:collect="always"
       xlink:href="#linearGradient823"
       id="linearGradient825"
       x1="33.173569"
       y1="129.46443"
       x2="86.945335"
       y2="160.50957"
       gradientUnits="userSpaceOnUse" />
    <linearGradient
       inkscape:collect="always"
       xlink:href="#linearGradient860"
       id="linearGradient854"
       gradientUnits="userSpaceOnUse"
       x1="50.963448"
       y1="141.66051"
       x2="52.17263"
       y2="142.68666" />
    <linearGradient
       inkscape:collect="always"
       xlink:href="#linearGradient823"
       id="linearGradient862"
       gradientUnits="userSpaceOnUse"
       x1="33.173569"
       y1="129.46443"
       x2="86.945335"
       y2="160.50957" />
    <linearGradient
       inkscape:collect="always"
       xlink:href="#linearGradient823"
       id="linearGradient864"
       gradientUnits="userSpaceOnUse"
       x1="33.173569"
       y1="129.46443"
       x2="86.945335"
       y2="160.50957" />
    <linearGradient
       inkscape:collect="always"
       xlink:href="#linearGradient823"
       id="linearGradient866"
       gradientUnits="userSpaceOnUse"
       x1="33.173569"
       y1="129.46443"
       x2="86.945335"
       y2="160.50957" />
    <linearGradient
       inkscape:collect="always"
       xlink:href="#linearGradient823"
       id="linearGradient868"
       gradientUnits="userSpaceOnUse"
       x1="33.173569"
       y1="129.46443"
       x2="86.945335"
       y2="160.50957" />
    <linearGradient
       inkscape:collect="always"
       xlink:href="#linearGradient823"
       id="linearGradient870"
       gradientUnits="userSpaceOnUse"
       x1="33.173569"
       y1="129.46443"
       x2="86.945335"
       y2="160.50957" />
    <linearGradient
       inkscape:collect="always"
       xlink:href="#linearGradient823"
       id="linearGradient872"
       gradientUnits="userSpaceOnUse"
       x1="33.173569"
       y1="129.46443"
       x2="86.945335"
       y2="160.50957" />
    <linearGradient
       inkscape:collect="always"
       xlink:href="#linearGradient823"
       id="linearGradient874"
       gradientUnits="userSpaceOnUse"
       x1="33.173569"
       y1="129.46443"
       x2="86.945335"
       y2="160.50957" />
    <linearGradient
       inkscape:collect="always"
       xlink:href="#linearGradient823"
       id="linearGradient876"
       gradientUnits="userSpaceOnUse"
       x1="33.173569"
       y1="129.46443"
       x2="86.945335"
       y2="160.50957" />
    <linearGradient
       inkscape:collect="always"
       xlink:href="#linearGradient823"
       id="linearGradient878"
       gradientUnits="userSpaceOnUse"
       x1="33.173569"
       y1="129.46443"
       x2="86.945335"
       y2="160.50957" />
    <linearGradient
       inkscape:collect="always"
       xlink:href="#linearGradient823"
       id="linearGradient880"
       gradientUnits="userSpaceOnUse"
       x1="33.173569"
       y1="129.46443"
       x2="86.945335"
       y2="160.50957" />
    <linearGradient
       inkscape:collect="always"
       xlink:href="#linearGradient823"
       id="linearGradient882"
       gradientUnits="userSpaceOnUse"
       x1="33.173569"
       y1="129.46443"
       x2="86.945335"
       y2="160.50957" />
    <linearGradient
       inkscape:collect="always"
       xlink:href="#linearGradient823"
       id="linearGradient884"
       gradientUnits="userSpaceOnUse"
       x1="33.173569"
       y1="129.46443"
       x2="86.945335"
       y2="160.50957" />
  </defs>
  <sodipodi:namedview
     id="base"
     pagecolor="#ffffff"
     bordercolor="#666666"
     borderopacity="1.0"
     inkscape:pageopacity="0.0"
     inkscape:pageshadow="2"
     inkscape:zoom="5.6"
     inkscape:cx="81.44231"
     inkscape:cy="7.6955578"
     inkscape:document-units="mm"
     inkscape:current-layer="text817"
     showgrid="false"
     fit-margin-left="1.5"
     fit-margin-top="1.5"
     fit-margin-bottom="1.5"
     fit-margin-right="1.5"
     inkscape:window-width="1920"
     inkscape:window-height="1028"
     inkscape:window-x="0"
     inkscape:window-y="0"
     inkscape:window-maximized="1" />
  <metadata
     id="metadata5">
    <rdf:RDF>
      <cc:Work
         rdf:about="">
        <dc:format>image/svg+xml</dc:format>
        <dc:type
           rdf:resource="http://purl.org/dc/dcmitype/StillImage" />
        <dc:title></dc:title>
      </cc:Work>
    </rdf:RDF>
  </metadata>
  <g
     inkscape:label="Layer 1"
     inkscape:groupmode="layer"
     id="layer1"
     transform="translate(-41.568322,-140.18415)">
    <g
       aria-label="coinaccount"
       style="font-style:normal;font-variant:normal;font-weight:normal;font-stretch:normal;font-size:7.76111126px;line-height:392.95001221;font-family:'Segoe UI';-inkscape-font-specification:'Segoe UI';letter-spacing:0px;word-spacing:0px;fill:url(#linearGradient884);fill-opacity:1;stroke:none;stroke-width:0.26458332"
       id="text817">
      <path
         d="m 44.899945,147.2023 q -0.566561,0 -0.9779,-0.2406 -0.411339,-0.24835 -0.636411,-0.69074 -0.217312,-0.45014 -0.217312,-1.04775 0,-0.90029 0.48895,-1.41252 0.48895,-0.51999 1.342673,-0.51999 0.2794,0 0.582083,0.0931 0.302683,0.0854 0.551039,0.28716 0.131939,0.0931 0.108656,0.23283 -0.01552,0.1397 -0.131939,0.20955 -0.108656,0.0699 -0.256117,-0.031 -0.20955,-0.15522 -0.4191,-0.21731 -0.201789,-0.0621 -0.395817,-0.0621 -0.589844,0 -0.90805,0.37253 -0.318205,0.36478 -0.318205,1.05551 0,0.67522 0.318205,1.07104 0.318206,0.38805 0.90805,0.38805 0.194028,0 0.395817,-0.0621 0.20955,-0.0621 0.4191,-0.21731 0.147461,-0.10089 0.256117,-0.0233 0.108655,0.0699 0.116416,0.20955 0.01552,0.1397 -0.108655,0.22507 -0.248356,0.20179 -0.543278,0.29492 -0.294922,0.0854 -0.574322,0.0854 z"
         style="font-style:normal;font-variant:normal;font-weight:normal;font-stretch:normal;font-family:Nunito;-inkscape-font-specification:Nunito;fill:url(#linearGradient862);fill-opacity:1;stroke-width:0.26458332"
         id="path827"
         inkscape:connector-curvature="0" />
      <path
         d="m 48.384677,147.2023 q -0.551039,0 -0.954617,-0.2406 -0.403578,-0.24059 -0.62865,-0.67521 -0.217311,-0.44239 -0.217311,-1.03999 0,-0.59761 0.217311,-1.03223 0.225072,-0.44238 0.62865,-0.68298 0.403578,-0.24059 0.954617,-0.24059 0.543278,0 0.946855,0.24059 0.411339,0.2406 0.62865,0.68298 0.225073,0.43462 0.225073,1.03223 0,0.5976 -0.225073,1.03999 -0.217311,0.43462 -0.62865,0.67521 -0.403577,0.2406 -0.946855,0.2406 z m 0,-0.50448 q 0.527755,0 0.845961,-0.37253 0.318206,-0.38029 0.318206,-1.07879 0,-0.70626 -0.318206,-1.0788 -0.318206,-0.37253 -0.845961,-0.37253 -0.535517,0 -0.853722,0.37253 -0.310445,0.37254 -0.310445,1.0788 0,0.6985 0.310445,1.07879 0.318205,0.37253 0.853722,0.37253 z"
         style="font-style:normal;font-variant:normal;font-weight:normal;font-stretch:normal;font-family:Nunito;-inkscape-font-specification:Nunito;fill:url(#linearGradient864);fill-opacity:1;stroke-width:0.26458332"
         id="path829"
         inkscape:connector-curvature="0" />
      <path
         style="font-style:normal;font-variant:normal;font-weight:normal;font-stretch:normal;font-family:Nunito;-inkscape-font-specification:Nunito;fill:url(#linearGradient854);fill-opacity:1;stroke-width:0.26458332"
         d="m 51.442553,142.4525 q -0.411339,0 -0.411339,-0.38806 0,-0.38029 0.411339,-0.38029 0.411339,0 0.411339,0.38029 0,0.38806 -0.411339,0.38806 z"
         id="path852"
         inkscape:connector-curvature="0" />
      <path
         style="font-style:normal;font-variant:normal;font-weight:normal;font-stretch:normal;font-family:Nunito;-inkscape-font-specification:Nunito;fill:url(#linearGradient866);fill-opacity:1;stroke-width:0.26458332"
         d="m 51.442553,147.17125 q -0.310445,0 -0.310445,-0.34149 v -3.17429 q 0,-0.33373 0.310445,-0.33373 0.318205,0 0.318205,0.33373 v 3.17429 q 0,0.34149 -0.318205,0.34149 z"
         id="path831"
         inkscape:connector-curvature="0" />
      <path
         d="m 53.243119,147.18677 q -0.310445,0 -0.310445,-0.32596 v -3.23639 q 0,-0.3182 0.302683,-0.3182 0.310445,0 0.310445,0.3182 v 0.3803 q 0.186267,-0.35701 0.527756,-0.53552 0.341488,-0.1785 0.76835,-0.1785 1.342672,0 1.342672,1.49013 v 2.07998 q 0,0.32596 -0.310445,0.32596 -0.318205,0 -0.318205,-0.32596 v -2.04117 q 0,-0.52776 -0.20955,-0.76835 -0.201789,-0.24836 -0.651934,-0.24836 -0.519994,0 -0.830438,0.32597 -0.302684,0.3182 -0.302684,0.85372 v 1.87819 q 0,0.32596 -0.318205,0.32596 z"
         style="font-style:normal;font-variant:normal;font-weight:normal;font-stretch:normal;font-family:Nunito;-inkscape-font-specification:Nunito;fill:url(#linearGradient868);fill-opacity:1;stroke-width:0.26458332"
         id="path833"
         inkscape:connector-curvature="0" />
      <path
         d="m 58.528427,147.2023 q -0.388055,0 -0.6985,-0.14746 -0.302683,-0.15523 -0.481188,-0.4191 -0.178506,-0.26388 -0.178506,-0.58985 0,-0.41134 0.20955,-0.65193 0.217311,-0.2406 0.706261,-0.34149 0.496711,-0.10866 1.350433,-0.10866 h 0.248356 v -0.24059 q 0,-0.48119 -0.201789,-0.69074 -0.194028,-0.21731 -0.62865,-0.21731 -0.271639,0 -0.551039,0.0698 -0.271639,0.0699 -0.566561,0.22507 -0.131939,0.0699 -0.225072,0.031 -0.08537,-0.0466 -0.124178,-0.1397 -0.03104,-0.1009 0,-0.20179 0.03881,-0.10866 0.155222,-0.16299 0.333728,-0.17074 0.667456,-0.24835 0.341489,-0.0776 0.644172,-0.0776 0.729545,0 1.078795,0.35701 0.357011,0.35701 0.357011,1.10984 v 2.10326 q 0,0.32596 -0.287161,0.32596 -0.302684,0 -0.302684,-0.32596 v -0.3803 q -0.147461,0.33373 -0.457905,0.52776 -0.302684,0.19403 -0.714023,0.19403 z m 0.100895,-0.47343 q 0.465667,0 0.760589,-0.31821 0.294922,-0.32596 0.294922,-0.82267 v -0.23284 h -0.240594 q -0.62865,0 -0.993423,0.0621 -0.357011,0.0543 -0.504472,0.20179 -0.1397,0.1397 -0.1397,0.38806 0,0.3182 0.217311,0.51999 0.225072,0.20179 0.605367,0.20179 z"
         style="font-style:normal;font-variant:normal;font-weight:normal;font-stretch:normal;font-family:Nunito;-inkscape-font-specification:Nunito;fill:url(#linearGradient870);fill-opacity:1;stroke-width:0.26458332"
         id="path835"
         inkscape:connector-curvature="0" />
      <path
         d="m 63.053145,147.2023 q -0.566561,0 -0.9779,-0.2406 -0.411339,-0.24835 -0.636411,-0.69074 -0.217311,-0.45014 -0.217311,-1.04775 0,-0.90029 0.48895,-1.41252 0.48895,-0.51999 1.342672,-0.51999 0.2794,0 0.582083,0.0931 0.302684,0.0854 0.551039,0.28716 0.131939,0.0931 0.108656,0.23283 -0.01552,0.1397 -0.131939,0.20955 -0.108656,0.0699 -0.256117,-0.031 -0.20955,-0.15522 -0.4191,-0.21731 -0.201789,-0.0621 -0.395817,-0.0621 -0.589844,0 -0.90805,0.37253 -0.318205,0.36478 -0.318205,1.05551 0,0.67522 0.318205,1.07104 0.318206,0.38805 0.90805,0.38805 0.194028,0 0.395817,-0.0621 0.20955,-0.0621 0.4191,-0.21731 0.147461,-0.10089 0.256117,-0.0233 0.108655,0.0699 0.116416,0.20955 0.01552,0.1397 -0.108655,0.22507 -0.248356,0.20179 -0.543278,0.29492 -0.294922,0.0854 -0.574322,0.0854 z"
         style="font-style:normal;font-variant:normal;font-weight:normal;font-stretch:normal;font-family:Nunito;-inkscape-font-specification:Nunito;fill:url(#linearGradient872);fill-opacity:1;stroke-width:0.26458332"
         id="path837"
         inkscape:connector-curvature="0" />
      <path
         d="m 66.568922,147.2023 q -0.566561,0 -0.9779,-0.2406 -0.411338,-0.24835 -0.636411,-0.69074 -0.217311,-0.45014 -0.217311,-1.04775 0,-0.90029 0.48895,-1.41252 0.48895,-0.51999 1.342672,-0.51999 0.2794,0 0.582084,0.0931 0.302683,0.0854 0.551039,0.28716 0.131939,0.0931 0.108655,0.23283 -0.01552,0.1397 -0.131939,0.20955 -0.108655,0.0699 -0.256116,-0.031 -0.20955,-0.15522 -0.4191,-0.21731 -0.201789,-0.0621 -0.395817,-0.0621 -0.589844,0 -0.90805,0.37253 -0.318206,0.36478 -0.318206,1.05551 0,0.67522 0.318206,1.07104 0.318206,0.38805 0.90805,0.38805 0.194028,0 0.395817,-0.0621 0.20955,-0.0621 0.4191,-0.21731 0.147461,-0.10089 0.256116,-0.0233 0.108656,0.0699 0.116417,0.20955 0.01552,0.1397 -0.108656,0.22507 -0.248355,0.20179 -0.543277,0.29492 -0.294923,0.0854 -0.574323,0.0854 z"
         style="font-style:normal;font-variant:normal;font-weight:normal;font-stretch:normal;font-family:Nunito;-inkscape-font-specification:Nunito;fill:url(#linearGradient874);fill-opacity:1;stroke-width:0.26458332"
         id="path839"
         inkscape:connector-curvature="0" />
      <path
         d="m 70.053654,147.2023 q -0.551039,0 -0.954617,-0.2406 -0.403578,-0.24059 -0.62865,-0.67521 -0.217311,-0.44239 -0.217311,-1.03999 0,-0.59761 0.217311,-1.03223 0.225072,-0.44238 0.62865,-0.68298 0.403578,-0.24059 0.954617,-0.24059 0.543277,0 0.946855,0.24059 0.411339,0.2406 0.62865,0.68298 0.225073,0.43462 0.225073,1.03223 0,0.5976 -0.225073,1.03999 -0.217311,0.43462 -0.62865,0.67521 -0.403578,0.2406 -0.946855,0.2406 z m 0,-0.50448 q 0.527755,0 0.845961,-0.37253 0.318205,-0.38029 0.318205,-1.07879 0,-0.70626 -0.318205,-1.0788 -0.318206,-0.37253 -0.845961,-0.37253 -0.535517,0 -0.853723,0.37253 -0.310444,0.37254 -0.310444,1.0788 0,0.6985 0.310444,1.07879 0.318206,0.37253 0.853723,0.37253 z"
         style="font-style:normal;font-variant:normal;font-weight:normal;font-stretch:normal;font-family:Nunito;-inkscape-font-specification:Nunito;fill:url(#linearGradient876);fill-opacity:1;stroke-width:0.26458332"
         id="path841"
         inkscape:connector-curvature="0" />
      <path
         d="m 74.135996,147.2023 q -1.358194,0 -1.358194,-1.4979 v -2.07998 q 0,-0.3182 0.310444,-0.3182 0.318206,0 0.318206,0.3182 v 2.07222 q 0,0.50447 0.201789,0.74507 0.20955,0.24059 0.651933,0.24059 0.481189,0 0.783872,-0.3182 0.302684,-0.32597 0.302684,-0.86149 v -1.87819 q 0,-0.3182 0.318205,-0.3182 0.310445,0 0.310445,0.3182 v 3.23639 q 0,0.32596 -0.302684,0.32596 -0.310444,0 -0.310444,-0.32596 v -0.36477 q -0.178506,0.34148 -0.504472,0.52775 -0.318206,0.17851 -0.721784,0.17851 z"
         style="font-style:normal;font-variant:normal;font-weight:normal;font-stretch:normal;font-family:Nunito;-inkscape-font-specification:Nunito;fill:url(#linearGradient878);fill-opacity:1;stroke-width:0.26458332"
         id="path843"
         inkscape:connector-curvature="0" />
      <path
         d="m 77.465505,147.18677 q -0.310444,0 -0.310444,-0.32596 v -3.23639 q 0,-0.3182 0.302683,-0.3182 0.310444,0 0.310444,0.3182 v 0.3803 q 0.186267,-0.35701 0.527756,-0.53552 0.341489,-0.1785 0.76835,-0.1785 1.342672,0 1.342672,1.49013 v 2.07998 q 0,0.32596 -0.310444,0.32596 -0.318206,0 -0.318206,-0.32596 v -2.04117 q 0,-0.52776 -0.20955,-0.76835 -0.201789,-0.24836 -0.651933,-0.24836 -0.519995,0 -0.830439,0.32597 -0.302683,0.3182 -0.302683,0.85372 v 1.87819 q 0,0.32596 -0.318206,0.32596 z"
         style="font-style:normal;font-variant:normal;font-weight:normal;font-stretch:normal;font-family:Nunito;-inkscape-font-specification:Nunito;fill:url(#linearGradient880);fill-opacity:1;stroke-width:0.26458332"
         id="path845"
         inkscape:connector-curvature="0" />
      <path
         d="m 83.07678,147.2023 q -0.667456,0 -1.001184,-0.34925 -0.333728,-0.35701 -0.333728,-1.02447 v -1.97908 h -0.519994 q -0.271639,0 -0.271639,-0.24836 0,-0.24059 0.271639,-0.24059 h 0.519994 v -0.89253 q 0,-0.31821 0.318206,-0.31821 0.310444,0 0.310444,0.31821 v 0.89253 h 0.9779 q 0.271639,0 0.271639,0.24059 0,0.24836 -0.271639,0.24836 h -0.9779 v 1.91699 q 0,0.44238 0.186267,0.67522 0.186267,0.22507 0.605367,0.22507 0.147461,0 0.248355,-0.031 0.100895,-0.031 0.178506,-0.031 0.06985,-0.008 0.116417,0.0466 0.04657,0.0543 0.04657,0.18626 0,0.0931 -0.03881,0.17075 -0.03104,0.0776 -0.116417,0.10865 -0.09313,0.031 -0.248356,0.0543 -0.147461,0.0311 -0.271638,0.0311 z"
         style="font-style:normal;font-variant:normal;font-weight:normal;font-stretch:normal;font-family:Nunito;-inkscape-font-specification:Nunito;fill:url(#linearGradient882);fill-opacity:1;stroke-width:0.26458332"
         id="path847"
         inkscape:connector-curvature="0" />
    </g>
  </g>
</svg>
