<?xml version="1.0" encoding="UTF-8" standalone="no"?>
<!-- Created with Inkscape (http://www.inkscape.org/) -->

<svg
   xmlns:dc="http://purl.org/dc/elements/1.1/"
   xmlns:cc="http://creativecommons.org/ns#"
   xmlns:rdf="http://www.w3.org/1999/02/22-rdf-syntax-ns#"
   xmlns:svg="http://www.w3.org/2000/svg"
   xmlns="http://www.w3.org/2000/svg"
   xmlns:sodipodi="http://sodipodi.sourceforge.net/DTD/sodipodi-0.dtd"
   xmlns:inkscape="http://www.inkscape.org/namespaces/inkscape"
   width="43mm"
   height="8mm"
   viewBox="0 0 42.999999 8"
   version="1.1"
   id="svg8"
   inkscape:version="0.92.5 (2060ec1f9f, 2020-04-08)"
   sodipodi:docname="logo.svg">
  <defs
     id="defs2" />
  <sodipodi:namedview
     id="base"
     pagecolor="#ffffff"
     bordercolor="#666666"
     borderopacity="1.0"
     inkscape:pageopacity="0.0"
     inkscape:pageshadow="2"
     inkscape:zoom="5.6"
     inkscape:cx="92.768554"
     inkscape:cy="28.02709"
     inkscape:document-units="mm"
     inkscape:current-layer="layer1"
     showgrid="false"
     inkscape:window-width="1920"
     inkscape:window-height="1018"
     inkscape:window-x="0"
     inkscape:window-y="0"
     inkscape:window-maximized="1"
     fit-margin-top="0"
     fit-margin-left="0"
     fit-margin-right="0"
     fit-margin-bottom="0" />
  <metadata
     id="metadata5">
    <rdf:RDF>
      <cc:Work
         rdf:about="">
        <dc:format>image/svg+xml</dc:format>
        <dc:type
           rdf:resource="http://purl.org/dc/dcmitype/StillImage" />
        <dc:title></dc:title>
      </cc:Work>
    </rdf:RDF>
  </metadata>
  <g
     inkscape:label="Layer 1"
     inkscape:groupmode="layer"
     id="layer1"
     transform="translate(-36.470302,-142.54829)">
    <g
       id="g875"
       transform="translate(0.39627007,-0.14679362)">
      <ellipse
         ry="3.8532109"
         rx="3.8532112"
         cy="146.69508"
         cx="40.323513"
         id="path819"
         style="opacity:1;fill:#048657;fill-opacity:1;stroke:none;stroke-width:0.29357797;stroke-opacity:1" />
      <g
         id="text817"
         style="font-style:normal;font-variant:normal;font-weight:normal;font-stretch:normal;font-size:7.05555534px;line-height:392.95001221;font-family:Gputeks;-inkscape-font-specification:Gputeks;letter-spacing:0px;word-spacing:0px;fill:#000000;fill-opacity:1;stroke:none;stroke-width:0.26458332"
         aria-label="vertconomy">
        <path
           id="path823"
           style="fill:#ffffff"
           d="m 40.654243,147.78028 1.119656,-3.14537 h 0.313504 l -1.467611,4.11689 h -0.640787 l -1.41938,-4.11689 h 0.640788 l 1.08865,3.14537 q 0.07579,0.23772 0.1757,0.23772 0.103353,0 0.18948,-0.23772 z"
           inkscape:connector-curvature="0" />
        <path
           id="path825"
           style="stroke-width:0.26458332"
           d="M 46.348986,146.54694 H 43.41032 v 0.9853 q 0,0.093 0.0034,0.16192 0.0034,0.0689 0.02067,0.17225 0.02067,0.10335 0.05512,0.17915 0.03445,0.0723 0.09991,0.15503 0.06546,0.0827 0.155029,0.1378 0.08957,0.0517 0.230821,0.0861 0.141249,0.0344 0.316949,0.0344 h 1.912028 v 0.29283 h -1.912028 q -0.661458,0 -1.06798,-0.2825 -0.403076,-0.28594 -0.403076,-0.77514 V 145.696 q 0,-0.4892 0.403076,-0.77515 0.406522,-0.28594 1.06798,-0.28594 h 0.589111 q 0.658014,0 1.06109,0.28594 0.406521,0.28595 0.406521,0.77515 z m -2.938666,-0.29283 h 2.353 v -0.39963 q 0,-0.093 -0.0034,-0.15848 -0.0034,-0.0689 -0.02412,-0.17225 -0.01723,-0.10336 -0.05168,-0.1757 -0.03445,-0.0758 -0.09991,-0.15848 -0.06546,-0.0861 -0.15503,-0.1378 -0.08957,-0.0517 -0.230821,-0.0861 -0.141249,-0.0345 -0.316949,-0.0345 h -0.589111 q -0.1757,0 -0.316949,0.0345 -0.141249,0.0344 -0.230821,0.0861 -0.08957,0.0517 -0.155029,0.1378 -0.06546,0.0827 -0.09991,0.15848 -0.03445,0.0723 -0.05512,0.1757 -0.01723,0.10335 -0.02067,0.17225 -0.0034,0.0655 -0.0034,0.15848 z"
           inkscape:connector-curvature="0" />
        <path
           id="path827"
           style="stroke-width:0.26458332"
           d="m 48.84668,144.63491 v 0.29628 h -0.292833 q -0.1757,0 -0.316949,0.0345 -0.141249,0.0344 -0.230821,0.0861 -0.08957,0.0517 -0.15503,0.1378 -0.06546,0.0827 -0.09991,0.15848 -0.03445,0.0723 -0.05512,0.1757 -0.01723,0.10335 -0.02067,0.17225 -0.0034,0.0655 -0.0034,0.15848 v 2.89732 h -0.589111 v -4.11689 z"
           inkscape:connector-curvature="0" />
        <path
           id="path829"
           style="stroke-width:0.26458332"
           d="m 50.46243,143.1673 v 1.46761 h 1.178222 v 0.29628 H 50.46243 v 2.60105 q 0,0.093 0.0034,0.16192 0.0034,0.0689 0.02067,0.17225 0.02067,0.10335 0.05512,0.17915 0.03445,0.0723 0.09991,0.15503 0.06546,0.0827 0.155029,0.1378 0.08957,0.0517 0.230821,0.0861 0.141249,0.0344 0.316949,0.0344 h 0.296278 v 0.29283 h -0.296278 q -0.658013,0 -1.064535,-0.2825 -0.403076,-0.28594 -0.403076,-0.77514 v -2.76297 h -0.589111 v -0.29628 h 0.589111 v -1.46761 z"
           inkscape:connector-curvature="0" />
        <path
           id="path831"
           style="stroke-width:0.26458332"
           d="m 55.313125,144.63491 v 0.29628 h -1.763889 q -0.1757,0 -0.316949,0.0345 -0.141249,0.0344 -0.230821,0.0861 -0.08957,0.0517 -0.15503,0.1378 -0.06546,0.0827 -0.09991,0.15848 -0.03445,0.0723 -0.05512,0.1757 -0.01722,0.10335 -0.02067,0.17225 -0.0034,0.0655 -0.0034,0.15848 v 1.67776 q 0,0.093 0.0034,0.16192 0.0034,0.0689 0.02067,0.17225 0.02067,0.10335 0.05512,0.17915 0.03445,0.0723 0.09991,0.15503 0.06546,0.0827 0.15503,0.1378 0.08957,0.0517 0.230821,0.0861 0.141249,0.0344 0.316949,0.0344 h 1.763889 v 0.29283 h -1.763889 q -0.661458,0 -1.06798,-0.2825 -0.403076,-0.28594 -0.403076,-0.77514 v -1.9981 q 0,-0.4892 0.403076,-0.77515 0.406522,-0.28594 1.06798,-0.28594 z"
           inkscape:connector-curvature="0" />
        <path
           id="path833"
           style="stroke-width:0.26458332"
           d="m 58.107097,144.63491 q 0.658013,0 1.06109,0.28594 0.406521,0.28595 0.406521,0.77515 v 1.99816 q 0,0.4892 -0.406521,0.77514 -0.403077,0.2825 -1.06109,0.2825 h -0.589111 q -0.661458,0 -1.06798,-0.2825 -0.403076,-0.28594 -0.403076,-0.77514 V 145.696 q 0,-0.4892 0.403076,-0.77515 0.406522,-0.28594 1.06798,-0.28594 z m 0,0.29628 h -0.589111 q -0.1757,0 -0.316949,0.0345 -0.141249,0.0344 -0.230821,0.0861 -0.08957,0.0517 -0.15503,0.1378 -0.06546,0.0827 -0.09991,0.15848 -0.03445,0.0723 -0.05512,0.1757 -0.01722,0.10335 -0.02067,0.17225 -0.0034,0.0655 -0.0034,0.15848 v 1.67776 q 0,0.093 0.0034,0.16192 0.0034,0.0689 0.02067,0.17225 0.02067,0.10335 0.05512,0.17915 0.03445,0.0723 0.09991,0.15503 0.06546,0.0827 0.15503,0.1378 0.08957,0.0517 0.230821,0.0861 0.141249,0.0344 0.316949,0.0344 h 0.589111 q 0.1757,0 0.316949,-0.0344 0.141249,-0.0344 0.230821,-0.0861 0.08957,-0.0551 0.15503,-0.1378 0.06546,-0.0827 0.09991,-0.15503 0.03445,-0.0758 0.05168,-0.17915 0.02067,-0.10335 0.02412,-0.17225 0.0034,-0.0689 0.0034,-0.16192 v -1.67776 q 0,-0.093 -0.0034,-0.15848 -0.0034,-0.0689 -0.02412,-0.17225 -0.01723,-0.10336 -0.05168,-0.1757 -0.03445,-0.0758 -0.09991,-0.15848 -0.06546,-0.0861 -0.15503,-0.1378 -0.08957,-0.0517 -0.230821,-0.0861 -0.141249,-0.0345 -0.316949,-0.0345 z"
           inkscape:connector-curvature="0" />
        <path
           id="path835"
           style="stroke-width:0.26458332"
           d="m 60.308512,144.63491 h 2.060167 q 0.658013,0 1.061089,0.28594 0.406521,0.28595 0.406521,0.77515 v 3.0558 h -0.585666 v -2.89732 q 0,-0.093 -0.0034,-0.15848 -0.0034,-0.0689 -0.02412,-0.17225 -0.01722,-0.10336 -0.05168,-0.1757 -0.03445,-0.0758 -0.09991,-0.15848 -0.06546,-0.0861 -0.155029,-0.1378 -0.08957,-0.0517 -0.230822,-0.0861 -0.141249,-0.0345 -0.316948,-0.0345 h -0.881945 q -0.09991,0 -0.151584,0.003 -0.04823,0 -0.130914,0.007 -0.08268,0.007 -0.127468,0.0276 -0.04134,0.0172 -0.08957,0.0482 -0.04823,0.031 -0.0689,0.0827 -0.02067,0.0517 -0.02067,0.12402 v 3.52778 h -0.589111 z"
           inkscape:connector-curvature="0" />
        <path
           id="path837"
           style="stroke-width:0.26458332"
           d="m 66.630262,144.63491 q 0.658013,0 1.061089,0.28594 0.406522,0.28595 0.406522,0.77515 v 1.99816 q 0,0.4892 -0.406522,0.77514 -0.403076,0.2825 -1.061089,0.2825 h -0.589111 q -0.661459,0 -1.06798,-0.2825 -0.403076,-0.28594 -0.403076,-0.77514 V 145.696 q 0,-0.4892 0.403076,-0.77515 0.406521,-0.28594 1.06798,-0.28594 z m 0,0.29628 h -0.589111 q -0.1757,0 -0.316949,0.0345 -0.141249,0.0344 -0.230822,0.0861 -0.08957,0.0517 -0.155029,0.1378 -0.06546,0.0827 -0.09991,0.15848 -0.03445,0.0723 -0.05512,0.1757 -0.01723,0.10335 -0.02067,0.17225 -0.0034,0.0655 -0.0034,0.15848 v 1.67776 q 0,0.093 0.0034,0.16192 0.0034,0.0689 0.02067,0.17225 0.02067,0.10335 0.05512,0.17915 0.03445,0.0723 0.09991,0.15503 0.06546,0.0827 0.155029,0.1378 0.08957,0.0517 0.230822,0.0861 0.141249,0.0344 0.316949,0.0344 h 0.589111 q 0.1757,0 0.316949,-0.0344 0.141249,-0.0344 0.230821,-0.0861 0.08957,-0.0551 0.155029,-0.1378 0.06546,-0.0827 0.09991,-0.15503 0.03445,-0.0758 0.05168,-0.17915 0.02067,-0.10335 0.02412,-0.17225 0.0034,-0.0689 0.0034,-0.16192 v -1.67776 q 0,-0.093 -0.0034,-0.15848 -0.0034,-0.0689 -0.02412,-0.17225 -0.01723,-0.10336 -0.05168,-0.1757 -0.03445,-0.0758 -0.09991,-0.15848 -0.06546,-0.0861 -0.155029,-0.1378 -0.08957,-0.0517 -0.230821,-0.0861 -0.141249,-0.0345 -0.316949,-0.0345 z"
           inkscape:connector-curvature="0" />
        <path
           id="path839"
           style="stroke-width:0.26458332"
           d="m 68.831678,144.63491 h 4.116889 q 0.661458,0 1.064535,0.28594 0.406521,0.28595 0.406521,0.77515 v 3.0558 h -0.589111 v -2.89732 q 0,-0.093 -0.0034,-0.15848 -0.0034,-0.0689 -0.02412,-0.17225 -0.01723,-0.10336 -0.05168,-0.1757 -0.03445,-0.0758 -0.09991,-0.15848 -0.06546,-0.0861 -0.15503,-0.1378 -0.08957,-0.0517 -0.230821,-0.0861 -0.141249,-0.0345 -0.316949,-0.0345 H 72.50763 q -0.09646,0 -0.148139,0.003 -0.04823,0 -0.130914,0.007 -0.08268,0.007 -0.127468,0.0276 -0.04479,0.0172 -0.09302,0.0482 -0.04823,0.031 -0.0689,0.0827 -0.02067,0.0517 -0.02067,0.12402 v 3.52778 h -0.585667 v -3.52778 q 0,-0.0723 -0.02067,-0.12402 -0.02067,-0.0517 -0.0689,-0.0827 -0.04823,-0.031 -0.09302,-0.0482 -0.04479,-0.0207 -0.127468,-0.0276 -0.08268,-0.007 -0.134359,-0.007 -0.04823,-0.003 -0.144694,-0.003 h -0.733805 q -0.09991,0 -0.151584,0.003 -0.04823,0 -0.130914,0.007 -0.08268,0.007 -0.127469,0.0276 -0.04134,0.0172 -0.08957,0.0482 -0.04823,0.031 -0.0689,0.0827 -0.02067,0.0517 -0.02067,0.12402 v 3.52778 h -0.589111 z"
           inkscape:connector-curvature="0" />
        <path
           id="path841"
           style="stroke-width:0.26458332"
           d="m 78.677762,144.63491 v 4.52686 q 0,0.4892 -0.406521,0.77514 -0.403077,0.28595 -1.06109,0.28595 h -1.912028 v -0.29628 h 1.912028 q 0.1757,0 0.316949,-0.0344 0.141249,-0.0345 0.230821,-0.0861 0.08957,-0.0517 0.15503,-0.1378 0.06546,-0.0827 0.09991,-0.15848 0.03445,-0.0724 0.05168,-0.1757 0.02067,-0.10335 0.02412,-0.17225 0.0034,-0.0655 0.0034,-0.15848 V 148.7518 H 76.62104 q -0.661458,0 -1.06798,-0.2825 -0.403076,-0.28594 -0.403076,-0.77514 v -3.05925 h 0.589111 v 2.89733 q 0,0.093 0.0034,0.16192 0.0034,0.0689 0.02067,0.17225 0.02067,0.10335 0.05512,0.17915 0.03445,0.0723 0.09991,0.15503 0.06546,0.0827 0.15503,0.1378 0.08957,0.0517 0.230821,0.0861 0.141249,0.0344 0.316949,0.0344 h 1.471056 v -3.82406 z"
           inkscape:connector-curvature="0" />
      </g>
    </g>
  </g>
</svg>
